<svg width="319" height="55" viewBox="0 0 319 55" fill="none" xmlns="http://www.w3.org/2000/svg">
<g clip-path="url(#clip0_213_1020)">
<path fill-rule="evenodd" clip-rule="evenodd" d="M50.4326 19.1364L43.3661 14.2269L12.0538 35.9396V53.7384H0V30.0877L43.3661 0L60.668 12.0381L78.0083 0.00759983L98.2719 14.0521H78.2615L46.7037 35.9396V53.7384H34.6499V30.0877L50.4326 19.1364Z" fill="#FBDA94" stroke="#FBDA94" stroke-width="0.02" stroke-miterlimit="10"/>
<path fill-rule="evenodd" clip-rule="evenodd" d="M44.4325 51.4966V34.7693L77.5478 11.8102H91.0825L78.0082 2.75122L60.6679 14.7742L43.366 2.75122L2.271 31.2506V51.4966H9.79024V34.7693L43.366 11.4834L54.3763 19.1441L36.9209 31.2506V51.4966H44.4325Z" fill="#FBDA94" stroke="#FBDA94" stroke-width="0.02" stroke-miterlimit="10"/>
<path fill-rule="evenodd" clip-rule="evenodd" d="M176.234 34.5262V54.5897H169.804V28.4083H179.648V22.7692H186.055V28.4083H189.868V34.5262H186.055V47.1723C186.055 47.5295 186.086 48.3275 186.255 48.7227C186.293 48.7227 186.339 48.7227 186.37 48.7227C186.753 48.7227 187.26 48.6239 187.636 48.5555L190.007 48.1147L190.183 53.9057L188.925 54.4605C187.981 54.8785 186.861 54.9849 185.833 54.9849C181.367 54.9849 179.725 51.451 179.648 47.5067V34.511H176.234V34.5262ZM125.533 41.7916L129.492 28.4083H136.183L127.95 54.5897H123.108L114.83 28.4083H121.52L125.541 41.7916H125.533ZM305.672 43.7448C305.749 45.0747 306.033 46.5263 306.846 47.5523C307.614 48.5175 308.642 48.8367 309.862 48.8367C311.404 48.8367 312.632 48.3427 313.629 47.1723L315.263 45.2571L318.985 49.9538L318.064 51.2002C316.069 53.9057 313.084 55.0001 309.762 55.0001C306.754 55.0001 304.038 54.0349 302.036 51.7398C299.956 49.3534 299.266 46.2147 299.266 43.1368V40.4388C299.266 37.3153 299.872 34.093 301.836 31.5698C303.708 29.1607 306.309 28.0055 309.371 28.0055C312.179 28.0055 314.726 28.9099 316.514 31.1138C318.409 33.447 318.916 36.6693 318.916 39.5801V43.7448H305.672ZM292.813 47.1191C292.813 46.7011 292.606 46.4047 292.291 46.1311C291.409 45.3407 289.851 44.6111 288.777 44.1248C287.358 43.4864 285.639 42.7036 284.396 41.7688C283.483 41.0848 282.685 40.2564 282.148 39.2457C281.596 38.2197 281.373 37.0797 281.373 35.9169C281.373 33.6674 282.217 31.699 283.905 30.1867C285.631 28.6363 287.787 27.9903 290.089 27.9903C292.514 27.9903 294.793 28.6515 296.58 30.3235C298.337 31.9726 299.12 34.1234 299.12 36.5021V38.5389H292.713V36.5021C292.713 35.8409 292.529 35.3165 292.046 34.8606C291.509 34.3438 290.826 34.1918 290.089 34.1918C289.46 34.1918 288.723 34.2906 288.232 34.7162C287.872 35.0278 287.757 35.3622 287.757 35.8333C287.757 36.1069 287.803 36.3197 288.01 36.5097C288.716 37.1633 290.534 38.0145 291.386 38.4173C292.859 39.0557 294.739 39.884 296.059 40.872C297.002 41.5788 297.823 42.4376 298.391 43.4636C298.997 44.5503 299.243 45.7587 299.243 46.9899C299.243 49.323 298.406 51.375 296.596 52.895C294.793 54.4149 292.544 54.9925 290.212 54.9925C287.726 54.9925 285.363 54.3389 283.475 52.6822C281.634 51.071 280.729 48.9507 280.729 46.5187V44.4819H287.059L287.158 46.4199C287.189 47.0811 287.342 47.7423 287.864 48.1907C288.455 48.7075 289.468 48.8063 290.22 48.8063C290.972 48.8063 291.739 48.6923 292.307 48.2363C292.69 47.9323 292.821 47.5903 292.821 47.1039L292.813 47.1191ZM273.378 54.2553C272.204 54.7569 270.9 55.0001 269.488 55.0001C266.979 55.0001 264.754 54.1185 263.25 52.0894C261.708 50.007 261.286 47.2711 261.286 44.7555V28.4159H267.67V44.6947C267.67 45.7207 267.777 47.2255 268.383 48.0995C268.736 48.6087 269.158 48.7607 269.78 48.7607C271.675 48.7607 272.703 48.0235 273.271 46.3211V28.4083H279.7V54.5897H273.386V54.2553H273.378ZM239.365 40.378C239.365 37.2545 240.01 34.0778 241.989 31.5622C243.884 29.1531 246.501 27.9979 249.57 27.9979C252.639 27.9979 255.255 29.1151 257.158 31.5166C259.145 34.017 259.797 37.1937 259.797 40.3172V42.6656C259.797 45.7967 259.168 49.0191 257.15 51.5194C255.248 53.8753 252.646 55.0001 249.616 55.0001C246.585 55.0001 244.015 53.9209 242.104 51.5954C240.109 49.1786 239.426 46.0855 239.373 43.0304V40.378H239.365ZM226.329 28.9707C227.526 28.3171 228.853 28.0055 230.25 28.0055C236.104 28.0055 238.191 32.5198 238.291 37.7105V54.5973H231.907V37.9917C231.907 37.0873 231.807 35.5825 231.247 34.815C230.887 34.3286 230.242 34.245 229.674 34.245C228.953 34.245 228.378 34.5414 227.856 35.0278C227.135 35.7041 226.651 36.6161 226.329 37.5357V54.5897H219.922V19.1289H226.329V28.9631V28.9707ZM196.014 43.7448H209.257V39.5801C209.257 36.6693 208.751 33.447 206.856 31.1138C205.068 28.9099 202.528 28.0055 199.713 28.0055C196.659 28.0055 194.05 29.1607 192.178 31.5698C190.214 34.1006 189.608 37.3153 189.608 40.4388V43.1444C189.638 46.2223 190.306 49.361 192.377 51.7398C194.38 54.0349 197.088 55.0001 200.104 55.0001C203.426 55.0001 206.411 53.9133 208.406 51.2002L209.326 49.9538L205.613 45.2571L203.979 47.1723C202.981 48.3427 201.754 48.8367 200.211 48.8367C198.991 48.8367 197.963 48.5175 197.196 47.5523C196.383 46.5263 196.091 45.0747 196.022 43.7448H196.014ZM169.474 24.0764C169.474 24.9808 169.751 25.832 170.326 26.5311C171.001 27.3595 171.976 27.7699 173.042 27.7699C174.109 27.7699 175.068 27.3671 175.751 26.5539C176.342 25.8472 176.625 24.9884 176.625 24.0764C176.625 23.1644 176.342 22.3132 175.758 21.6065C175.083 20.7781 174.109 20.3601 173.035 20.3601C171.96 20.3601 170.978 20.7857 170.303 21.6217C169.743 22.3284 169.467 23.172 169.467 24.0688L169.474 24.0764ZM162.968 37.5357V54.5897H156.561V28.4083H162.899V28.6591C163.82 28.2335 164.856 27.9979 166.022 27.9979C166.85 27.9979 167.694 28.1195 168.416 28.5299L169.482 29.1303L169.375 34.9898L167.004 34.5794C166.651 34.5186 166.275 34.4654 165.914 34.4654C165.224 34.4654 164.679 34.663 164.188 35.1494C163.551 35.7801 163.183 36.6693 162.96 37.5357H162.968ZM134.571 40.378V43.0304C134.625 46.0855 135.316 49.1786 137.303 51.5954C139.213 53.9209 141.814 55.0001 144.814 55.0001C147.814 55.0001 150.446 53.8753 152.349 51.5194C154.367 49.0191 154.996 45.7967 154.996 42.6656V40.3172C154.996 37.1937 154.344 34.017 152.357 31.5166C150.454 29.1227 147.822 27.9979 144.768 27.9979C141.715 27.9979 139.075 29.1531 137.18 31.5622C135.201 34.0778 134.556 37.2469 134.556 40.378H134.571ZM110.119 53.693L110.379 54.5973H116.425V51.9526L116.303 51.6106C115.881 50.463 115.827 48.6619 115.827 47.4535V36.6085C115.827 34.2526 115.221 31.9574 113.471 30.2703C111.714 28.5755 109.328 28.0131 106.942 28.0131C104.556 28.0131 102.2 28.7655 100.367 30.4451C98.5864 32.0714 97.6427 34.1462 97.6427 36.5477V38.5693L102.507 38.6149C101.663 38.9797 100.873 39.4509 100.152 40.0664C98.1184 41.7916 97.1977 44.1248 97.1977 46.7619C97.1977 48.9963 97.7808 51.1622 99.3998 52.7886C101.003 54.3921 103.121 55.0077 105.361 55.0077C106.965 55.0077 108.492 54.6201 109.896 53.8373C109.973 53.7917 110.057 53.7462 110.134 53.7006L110.119 53.693ZM104.049 38.0753V36.5553C104.049 35.8865 104.234 35.3545 104.74 34.8986C105.331 34.3666 106.06 34.1994 106.842 34.1994C107.487 34.1994 108.446 34.2754 108.96 34.7238C109.39 35.0962 109.443 36.0841 109.443 36.5933V37.6421H107.663C106.436 37.6421 105.216 37.7713 104.049 38.0753ZM84.7296 40.7428V54.5973H78.2615V20.7629H98.011V27.0479H84.7296V34.4502H96.277V40.7352H84.7296V40.7428ZM305.918 37.5433H312.394C312.271 36.6541 312.025 35.7345 311.542 35.1038C311.005 34.397 310.238 34.207 309.371 34.207C308.343 34.207 307.491 34.4654 306.854 35.2938C306.386 35.9093 306.094 36.7149 305.918 37.5433ZM245.795 42.6656C245.795 44.2616 246.017 46.1539 246.976 47.4991C247.644 48.4339 248.465 48.8215 249.616 48.8215C250.767 48.8215 251.595 48.5023 252.255 47.5827C253.191 46.2679 253.398 44.292 253.398 42.734V40.3856C253.398 38.7821 253.168 36.8897 252.209 35.5445C251.542 34.6174 250.728 34.2146 249.577 34.2146C248.426 34.2146 247.675 34.6174 247.015 35.5141C246.056 36.8213 245.81 38.6757 245.795 40.2336V42.6732V42.6656ZM196.26 37.5433C196.436 36.7149 196.72 35.9017 197.196 35.2938C197.833 34.4654 198.684 34.207 199.713 34.207C200.58 34.207 201.347 34.397 201.884 35.1038C202.367 35.7345 202.613 36.6541 202.736 37.5433H196.26ZM141.009 42.6656V40.226C141.024 38.6681 141.27 36.8137 142.229 35.5065C142.881 34.6098 143.671 34.207 144.791 34.207C145.912 34.207 146.756 34.6098 147.423 35.5369C148.382 36.8821 148.612 38.7745 148.612 40.378V42.7264C148.612 44.2844 148.405 46.2679 147.469 47.5827C146.817 48.5023 145.95 48.8215 144.83 48.8215C143.71 48.8215 142.858 48.4339 142.19 47.4991C141.239 46.1615 141.009 44.2616 141.009 42.6656ZM109.443 46.5111C109.121 47.1343 108.676 47.6359 108.07 48.0387C107.333 48.5327 106.528 48.7303 105.645 48.7303C104.019 48.7303 103.62 48.1451 103.62 46.5643C103.62 45.7359 103.835 45.0595 104.479 44.5124C105.338 43.7904 106.819 43.6308 107.886 43.6156H109.443V46.5035V46.5111Z" fill="#FBDA94" stroke="#FBDA94" stroke-width="0.02" stroke-miterlimit="10"/>
<path fill-rule="evenodd" clip-rule="evenodd" d="M125.556 48.9885L131.042 30.4373H133.39L126.438 52.5452H124.62L117.63 30.4373H119.978L125.548 48.9885H125.556ZM309.378 32.1549C307.575 32.1549 306.194 32.7857 305.22 34.0472C304.253 35.3088 303.716 37.148 303.624 39.5723H314.573V38.9795C314.465 34.4272 312.731 32.1549 309.378 32.1549ZM309.77 52.948C307.146 52.948 305.089 52.0969 303.601 50.3945C302.112 48.6921 301.36 46.2678 301.33 43.1214V40.4235C301.33 37.1784 302.043 34.64 303.478 32.7933C304.905 30.9465 306.877 30.0269 309.378 30.0269C311.88 30.0269 313.644 30.8097 314.918 32.3753C316.192 33.9408 316.836 36.3348 316.867 39.5647V41.6927H303.609V42.9391C303.609 45.4698 304.153 47.4306 305.25 48.8061C306.348 50.1817 307.89 50.8733 309.877 50.8733C312.079 50.8733 313.859 50.0753 315.217 48.4793L316.414 49.9917C314.956 51.9677 312.747 52.9556 309.77 52.9556V52.948ZM294.885 47.1038C294.885 46.1538 294.486 45.3178 293.688 44.6034C292.89 43.889 291.539 43.1062 289.637 42.2551C287.734 41.4039 286.399 40.6971 285.647 40.1271C284.887 39.5647 284.335 38.9491 283.974 38.2804C283.613 37.6116 283.437 36.8212 283.437 35.9092C283.437 34.2068 284.058 32.8009 285.294 31.6913C286.529 30.5817 288.133 30.0269 290.097 30.0269C292.215 30.0269 293.903 30.6197 295.169 31.8053C296.435 32.9909 297.064 34.5564 297.064 36.502H294.777C294.777 35.248 294.348 34.2068 293.481 33.3861C292.614 32.5653 291.486 32.1473 290.097 32.1473C288.708 32.1473 287.68 32.4893 286.89 33.1657C286.099 33.8496 285.7 34.7312 285.7 35.8256C285.7 36.7072 286 37.4292 286.606 37.9916C287.212 38.5539 288.516 39.3063 290.527 40.2563C292.606 41.1531 294.033 41.8979 294.816 42.4831C295.598 43.0683 296.189 43.7218 296.588 44.4362C296.987 45.1506 297.186 46.0018 297.186 46.9822C297.186 48.8061 296.55 50.2577 295.268 51.3369C293.987 52.416 292.307 52.948 290.212 52.948C287.995 52.948 286.207 52.3477 284.841 51.1469C283.475 49.9461 282.785 48.4033 282.785 46.511H285.094C285.163 47.8865 285.624 48.9505 286.483 49.7105C287.342 50.4629 288.585 50.8429 290.204 50.8429C291.608 50.8429 292.736 50.5009 293.588 49.8245C294.44 49.1405 294.869 48.2361 294.869 47.1038H294.885ZM275.381 49.9005C274.115 51.9297 272.158 52.9404 269.503 52.9404C267.485 52.9404 265.959 52.2488 264.923 50.8581C263.895 49.4673 263.373 47.423 263.358 44.725V30.4221H265.629V44.6642C265.629 46.663 265.989 48.1829 266.703 49.2165C267.416 50.2501 268.452 50.7669 269.795 50.7669C272.68 50.7669 274.529 49.3761 275.342 46.6022V30.4221H277.652V52.53H275.427L275.388 49.8929L275.381 49.9005ZM243.738 42.6503C243.738 45.1962 244.26 47.2026 245.296 48.6541C246.332 50.1133 247.774 50.8429 249.616 50.8429C251.457 50.8429 252.938 50.1437 253.935 48.7377C254.933 47.3318 255.439 45.3254 255.455 42.7111V40.3627C255.455 37.8168 254.933 35.8104 253.889 34.3436C252.846 32.8769 251.411 32.1473 249.577 32.1473C247.744 32.1473 246.393 32.8617 245.35 34.2904C244.306 35.7192 243.769 37.6876 243.738 40.1955V42.6503ZM241.429 40.3627C241.429 37.1784 242.158 34.6552 243.616 32.8009C245.074 30.9465 247.061 30.0193 249.577 30.0193C252.094 30.0193 254.097 30.9313 255.547 32.7553C256.997 34.5792 257.733 37.0948 257.741 40.2943V42.6427C257.741 45.8878 257.012 48.4109 255.547 50.2197C254.081 52.0285 252.109 52.9328 249.616 52.9328C247.122 52.9328 245.15 52.0513 243.7 50.2805C242.242 48.5097 241.483 46.0702 241.429 42.9695V40.3551V40.3627ZM224.28 33.9104C224.94 32.7249 225.777 31.7825 226.789 31.0833C227.802 30.3841 228.961 30.0345 230.265 30.0345C234.155 30.0345 236.15 32.6033 236.25 37.7332V52.5452H233.979V37.9764C233.963 36.0004 233.61 34.5412 232.928 33.6065C232.237 32.6641 231.163 32.2005 229.69 32.2005C228.493 32.2005 227.419 32.6489 226.46 33.5381C225.508 34.4272 224.779 35.6508 224.28 37.2012V52.5452H221.994V21.1655H224.28V33.9104ZM199.72 32.1549C197.917 32.1549 196.536 32.7857 195.562 34.0472C194.595 35.3088 194.058 37.148 193.966 39.5723H204.915V38.9795C204.807 34.4272 203.073 32.1549 199.72 32.1549ZM200.111 52.948C197.487 52.948 195.431 52.0969 193.943 50.3945C192.454 48.6921 191.702 46.2678 191.672 43.1214V40.4235C191.672 37.1784 192.385 34.64 193.82 32.7933C195.247 30.9465 197.219 30.0269 199.72 30.0269C202.221 30.0269 203.986 30.8097 205.26 32.3753C206.534 33.9408 207.178 36.3348 207.209 39.5647V41.6927H193.95V42.9391C193.95 45.4698 194.495 47.4306 195.592 48.8061C196.689 50.1817 198.232 50.8733 200.219 50.8733C202.421 50.8733 204.201 50.0753 205.559 48.4793L206.756 49.9917C205.298 51.9677 203.089 52.9556 200.111 52.9556V52.948ZM184.007 24.7982V30.4373H187.82V32.4817H184.007V47.1722C184.007 48.3881 184.191 49.2849 184.551 49.8777C184.912 50.4705 185.526 50.7669 186.377 50.7669C186.746 50.7669 187.298 50.6985 188.027 50.5617L188.088 52.606C187.567 52.834 186.815 52.9556 185.84 52.9556C183.163 52.9556 181.781 51.1317 181.712 47.4838V32.4893H178.267V30.4449H181.712V24.8058H183.999L184.007 24.7982ZM171.546 24.0611C171.546 23.5975 171.676 23.2023 171.937 22.8755C172.198 22.5487 172.567 22.3815 173.05 22.3815C173.533 22.3815 173.902 22.5411 174.17 22.8755C174.439 23.2023 174.569 23.5975 174.569 24.0611C174.569 24.5247 174.439 24.9122 174.17 25.239C173.902 25.5582 173.526 25.7178 173.05 25.7178C172.574 25.7178 172.198 25.5582 171.937 25.239C171.676 24.9198 171.546 24.5247 171.546 24.0611ZM174.185 52.5376H171.876V30.4297H174.185V52.5376ZM167.38 32.5577C166.827 32.4665 166.352 32.4133 165.937 32.4133C164.671 32.4133 163.612 32.8389 162.753 33.6977C161.894 34.5564 161.288 35.7496 160.927 37.2696V52.53H158.641V30.4221H160.889L160.927 33.7281C162.009 31.2505 163.72 30.0117 166.045 30.0117C166.651 30.0117 167.111 30.1029 167.426 30.2777L167.387 32.5425L167.38 32.5577ZM138.96 42.6503C138.96 45.1962 139.482 47.2026 140.518 48.6541C141.553 50.1133 142.996 50.8429 144.837 50.8429C146.679 50.8429 148.16 50.1437 149.157 48.7377C150.155 47.3318 150.661 45.3254 150.676 42.7111V40.3627C150.676 37.8168 150.155 35.8104 149.111 34.3436C148.068 32.8769 146.633 32.1473 144.799 32.1473C142.965 32.1473 141.615 32.8617 140.571 34.2904C139.528 35.7192 138.991 37.6876 138.96 40.1955V42.6503ZM136.651 40.3627C136.651 37.1784 137.38 34.6552 138.837 32.8009C140.295 30.9465 142.282 30.0193 144.799 30.0193C147.316 30.0193 149.318 30.9313 150.768 32.7553C152.219 34.5792 152.955 37.0948 152.963 40.2943V42.6427C152.963 45.8878 152.234 48.4109 150.768 50.2197C149.303 52.0285 147.323 52.9328 144.837 52.9328C142.351 52.9328 140.372 52.0513 138.922 50.2805C137.464 48.5097 136.712 46.0702 136.651 42.9695V40.3551V40.3627ZM105.661 50.7593C107.011 50.7593 108.2 50.4097 109.236 49.7181C110.272 49.0265 111.031 48.0993 111.515 46.9366V41.5635H107.886C105.799 41.5939 104.218 42.0499 103.159 42.9391C102.1 43.8282 101.571 45.029 101.571 46.5414C101.571 49.3457 102.929 50.7517 105.653 50.7517L105.661 50.7593ZM111.952 52.5376C111.745 51.8309 111.607 50.8049 111.538 49.4749C110.847 50.5769 109.965 51.4357 108.891 52.0361C107.809 52.644 106.635 52.948 105.377 52.948C103.451 52.948 101.955 52.4084 100.881 51.3369C99.8063 50.2577 99.2693 48.7301 99.2693 46.739C99.2693 44.573 100.014 42.8555 101.51 41.5939C102.998 40.3247 105.062 39.6863 107.686 39.6711H111.523V36.5856C111.523 35.0048 111.124 33.8724 110.333 33.1809C109.543 32.4969 108.384 32.1473 106.858 32.1473C105.438 32.1473 104.28 32.5577 103.374 33.3709C102.469 34.184 102.016 35.2404 102.016 36.54L99.7296 36.5172C99.7296 34.7084 100.42 33.1733 101.794 31.9117C103.167 30.6501 104.893 30.0193 106.973 30.0193C109.213 30.0193 110.909 30.5741 112.067 31.6913C113.226 32.8085 113.801 34.4348 113.801 36.5704V47.4154C113.801 49.5813 114.001 51.2001 114.4 52.2793V52.5224H111.968L111.952 52.5376ZM94.2436 38.6831H82.6962V52.5376H80.3484V22.7995H95.9853V25.0034H82.7039V36.4868H94.2513V38.6907L94.2436 38.6831Z" fill="#FBDA94" stroke="#FBDA94" stroke-width="0.02" stroke-miterlimit="10"/>
</g>
<defs>
<clipPath id="clip0_213_1020">
<rect width="319" height="55" fill="white"/>
</clipPath>
</defs>
</svg>
